<svg aria-hidden="true" style="position:absolute;width:0;height:0;overflow:hidden" xmlns="http://www.w3.org/2000/svg">
  <defs>
    <symbol id="icon-antenna" viewBox="0 0 32 32">
      <path d="m30.77 22.1-8.44-8.5.94-4.62c.24.09.5.14.76.14h.03a2.16 2.16 0 1 0-2.03-1.42l-4.96.6L8.97.16A.54.54 0 0 0 8.6 0a.52.52 0 0 0-.37.15L6.7 1.65a.53.53 0 0 0 0 .76l.82.82a14.9 14.9 0 0 0 2.52 17.66c.04.05.09.08.14.1-.03.2-.05.38-.05.56v6.18h-6.4a2.67 2.67 0 0 0-2.67 2.67v1.06c0 .3.24.54.54.54h24.53c.3 0 .53-.24.53-.54V30.4c0-1.47-1.2-2.67-2.66-2.67h-6.4V25a14.79 14.79 0 0 0 10.17-1.5l-.08.04.81.82a.52.52 0 0 0 .75 0l1.51-1.5a.53.53 0 0 0 0-.75zm-7.5-15.87A1.06 1.06 0 0 1 25.1 7c0 .59-.47 1.06-1.06 1.06a1.07 1.07 0 0 1-.75-1.82zm-1.25 3.5-.6 2.95-1.17-1.18 1.77-1.76zm-.6-.9-1.92 1.91L18 9.25l3.4-.41zM24 28.8c.89 0 1.6.72 1.6 1.6v.54H2.14v-.54c0-.88.72-1.6 1.6-1.6H24zm-7.46-2.14v1.07H11.2v-1.07h5.34zM11.2 25.6v-4.05c0-1.3 1.2-2.35 2.67-2.35s2.66 1.05 2.66 2.35v4.05H11.2zm6.4-1.7v-2.35c0-1.88-1.67-3.41-3.73-3.41h-.07a3.8 3.8 0 0 0-3.2 1.76l-.02.02A13.81 13.81 0 0 1 8.34 3.96l-.03.07 18.6 18.71a13.64 13.64 0 0 1-9.4 1.15l.1.01zm11.3-.68-.76-.76L7.84 2.04l.75-.75 21.06 21.18-.76.75z"/>
      <path fill="var(--logo-secondary-color)" d="M13.87 20.27a1.6 1.6 0 0 0 0 3.2 1.6 1.6 0 0 0 0-3.2zm.38 1.98a.53.53 0 0 1-.91-.38c0-.3.23-.54.53-.54a.54.54 0 0 1 .37.91z"/>
    </symbol>
    <symbol id="icon-astronaut" viewBox="0 0 32 32">
      <path   d="M31.97 4.53a.54.54 0 0 0-.43-.37l-1.9-.27-.86-1.74c-.18-.36-.78-.36-.96 0l-.85 1.74-1.9.27a.54.54 0 0 0-.3.92l1.38 1.34-.33 1.9v.09a.53.53 0 0 0 .78.47l1.7-.9 1.71.9a.53.53 0 0 0 .78-.57v.01l-.33-1.9 1.39-1.35c.14-.14.2-.35.13-.55zm-2.46 1.32a.53.53 0 0 0-.15.47l.19 1.12-1-.53a.52.52 0 0 0-.5 0l-1 .53.2-1.12a.53.53 0 0 0-.16-.47l-.81-.79 1.12-.16a.54.54 0 0 0 .4-.3l.5-1 .5 1c.08.16.23.27.4.3l1.12.16-.8.8zm-3.38 14.68h-1.06v1.06h1.07v-1.07zm0 2.13h-1.06v1.06h1.07v-1.06zm1.07-1.07h-1.06v1.07h1.06v-1.07zm-2.13 0H24v1.07h1.06v-1.07zm-2.67 4.8h-1.06v1.07h1.06v-1.07zm0 2.14h-1.06v1.06h1.06v-1.07zm1.07-1.07H22.4v1.06h1.06v-1.06zm-2.13 0h-1.07v1.06h1.07v-1.06zM16 24.26h-1.06v1.06H16v-1.06zm0 2.13h-1.06v1.07H16v-1.07zm1.07-1.06H16v1.06h1.06v-1.07zm-2.13 0h-1.07v1.06h1.07v-1.07zM5.87 6.13H4.8v1.06h1.07V6.12zm0 2.13H4.8v1.06h1.07V8.26zm1.06-1.07H5.86v1.07h1.07V7.19zm-2.13 0H3.74v1.07H4.8V7.19z"/>
      <path  d="M24.71 14.16c-.28-.38-.7-.64-1.18-.7a1.77 1.77 0 0 0-1.34.35l-1.25.96-1.9 1.41-1.36-.54A6.93 6.93 0 0 0 14.83 2.4a6.95 6.95 0 0 0-6.96 6.93c0 1.4.42 2.7 1.14 3.79l-.02-.03-2.77-.02H6.2a.43.43 0 0 0-.16.04h-.03l-.03.01-3.23 1.6-1.9.91a1.78 1.78 0 0 0 1.8 3.09h-.02l1.39-.73 2.26-1.17 1.36-.01-6.78 6.76a1.64 1.64 0 0 0 0 2.35 1.66 1.66 0 0 0 2.36 0l1.3-1.31 1.75-1.3.9.9-1.76 1.75-1.34 1.33a1.64 1.64 0 0 0 0 2.36 1.66 1.66 0 0 0 2.36 0l3.48-3.47 1.01-1 .02-.03 5.16-5.65 3.48.5h.06a.5.5 0 0 0 .2-.04l.05-.03.06-.02 3.21-2.13.03-.04.04-.02 1.27-1.2a1.78 1.78 0 0 0 .2-2.36h.01zm-22.58 3.6a.72.72 0 0 1-.78-1.2l1.32-.63.32.92.13.4-.99.52zm3.5-1.82-1.55.8-.26-.74-.18-.54 2.03-1-.04 1.48zm15.1-6.61a5.8 5.8 0 0 1-.6 2.56l-4.18-1.9a1.86 1.86 0 0 0-.78-1.39h-.01l1.46-4.86a5.87 5.87 0 0 1 4.1 5.59zm-11.8 0a5.89 5.89 0 0 1 6.68-5.82h-.03l-1.44 4.75h-.05c-1.03 0-1.87.83-1.87 1.86a1.87 1.87 0 0 0 3.48.93l3.87 1.75A5.9 5.9 0 0 1 8.93 9.33zm5.96.8a.8.8 0 1 1-1.61 0 .81.81 0 0 1 1.61 0zM2.47 25.15a.61.61 0 0 1-.86 0 .6.6 0 0 1 0-.85l.96-.96.86.85-.97.95zm3.21 3.73a.6.6 0 0 1-.85-.84l.96-.96.85.84-.96.96zm3.49-3.47L7.4 27.17l-.85-.85 1.76-1.75.1-.14.02-.04a.37.37 0 0 0 .02-.12l.02-.08-.02-.1-.02-.1a.7.7 0 0 0-.09-.14l-.03-.04-1.6-1.6-.06-.03a.2.2 0 0 0-.1-.06.5.5 0 0 0-.08-.03.54.54 0 0 0-.1-.03l-.1.01-.1.02a.38.38 0 0 0-.1.05c-.02 0-.04 0-.06.02L4.23 23.5l-.9-.9 2.4-2.39 4.36 4.3-.92.9zm6.81-7.02h-.07a.52.52 0 0 0-.35.14l-.05.03-4.7 5.15-4.32-4.25 2.83-2.83c.1-.1.16-.23.16-.37 0-.3-.24-.54-.53-.54l-2.23.01.03-1.6 3.1.02a6.93 6.93 0 0 0 6.31 1.97l-.04.01c.03.03.08.07.13.09l2.4.96.16.76.18.88-3-.42zm4.04.18-.3-1.55 1.44-1.08.38.5.56.75-2.08 1.38zm3.76-2.83-.84.79-.93-1.24.83-.64a.73.73 0 0 1 .55-.14.72.72 0 0 1 .4 1.23z"/>
      <path   fill="var(--logo-secondary-color)" d="m13.6 18.55-2.14-2.14a.53.53 0 0 0-.75 0l-2.15 2.14a.53.53 0 0 0 0 .75l2.15 2.13a.53.53 0 0 0 .75 0l2.14-2.13a.53.53 0 0 0 0-.75zm-2.51 1.75-1.4-1.37 1.39-1.39 1.39 1.39-1.4 1.38zm6.08-15.23-.27 1.04c.08.01 1.74.45 1.74 2.15h1.07c0-2.02-1.67-2.97-2.54-3.19zm2.54 4.26h-1.07v1.06h1.07V9.32z"/>
    </symbol>
    <symbol id="icon-clock" viewBox="0 0 32 32">
      <path  d="M31.3 15.3a15.3 15.3 0 1 0-20.07 14.55l.1.03a.68.68 0 0 0 .54-.06.6.6 0 0 0 .28-.36l3.86-12.25a1.91 1.91 0 1 0-.85-3.63h.01l-5.1-5.1a.64.64 0 0 0-.9.9l5.1 5.1a1.87 1.87 0 0 0 .53 2.3v.01l-3.68 11.67a14.04 14.04 0 1 1 10.66-.38l-.09.03-.4-1.87a.64.64 0 0 0-1.05-.34l-3.83 3.42a.64.64 0 0 0 .22 1.08l4.9 1.57a.64.64 0 0 0 .82-.75l-.39-1.83a15.28 15.28 0 0 0 9.33-14.06v-.03zM16 14.66a.64.64 0 0 1 0 1.28.64.64 0 0 1 0-1.28zm2.1 14.87 2.18-1.95.6 2.84-2.8-.9z"/>
      <path fill="var(--logo-secondary-color)"  d="M15.36 3.19v1.33a.64.64 0 1 0 1.27-.06V3.18a.64.64 0 0 0-1.28 0zM3.88 14.66a.64.64 0 0 0 0 1.28h1.27a.64.64 0 0 0 0-1.28H3.87zm24.23 1.28a.64.64 0 0 0 0-1.28h-1.28a.64.64 0 0 0 0 1.28h1.28z"/>
    </symbol>
    <symbol id="icon-customer1" viewBox="0 0 28 32">
      <path  d="m4.08 0 4.77 4.51H0v21.9h23.15v-8.37l4.77 4.51V0H4.07zm18.86 17.52L9.4 4.72h13.54v12.8zm-4.2 5.7H3.66V8.48h1.07v13.74h14v1zM7.22 29.35l-.55 1.14-.56-1.15h-.46l.82 1.54v.88h.41v-.88l.82-1.54h-.48zm.7 2.41.2-.56h.94l.2.56h.44l-.92-2.42H8.4l-.92 2.42h.45zm.67-1.9.35 1h-.7l.35-1zm2.21.95a.54.54 0 0 0-.08.3c0 .2.06.37.2.5.15.12.35.19.59.19s.44-.07.61-.2l.14.16h.47l-.36-.41c.14-.2.2-.44.2-.74h-.33c0 .16-.04.31-.11.44l-.47-.54.17-.13a.8.8 0 0 0 .25-.25.53.53 0 0 0-.1-.66.61.61 0 0 0-.4-.16h-.06a.64.64 0 0 0-.43.17.55.55 0 0 0-.17.41v.03c0 .08.02.17.05.25s.1.18.2.3c-.14.1-.26.2-.36.33zm1.1.53a.6.6 0 0 1-.39.14h-.02a.4.4 0 0 1-.26-.1.36.36 0 0 1-.11-.27c0-.14.07-.25.2-.35l.05-.05.52.63zm-.43-1.08c-.12-.13-.17-.25-.17-.34a.3.3 0 0 1 .06-.2c.05-.05.1-.08.18-.08.08 0 .14.02.2.07.04.04.06.1.06.15a.3.3 0 0 1-.1.24l-.05.04-.18.12zm3.93 1.32a.86.86 0 0 0 .29-.6h-.42c-.02.17-.07.3-.15.37-.1.07-.2.1-.38.1h-.02a.47.47 0 0 1-.39-.2c-.1-.14-.14-.34-.14-.6v-.21c0-.26.05-.46.15-.59a.5.5 0 0 1 .42-.2c.16 0 .27.04.35.12s.14.2.16.37h.42a.9.9 0 0 0-.28-.61.93.93 0 0 0-.6-.22h-.05a1 1 0 0 0-.52.14.93.93 0 0 0-.35.4c-.08.18-.12.38-.12.6v.24c0 .21.04.41.12.58s.19.3.34.39c.15.1.32.14.51.14.27 0 .5-.07.66-.21zm2.47-.34c.08-.18.12-.38.12-.62v-.14c0-.24-.04-.44-.12-.61a.93.93 0 0 0-.85-.56h-.06c-.37 0-.7.23-.84.55v.01a1.5 1.5 0 0 0-.13.63v.13c0 .23.04.44.13.62s.2.3.35.4a1.05 1.05 0 0 0 1.05 0 .9.9 0 0 0 .35-.4zm-.45-1.36a1 1 0 0 1 .16.6v.14c0 .27-.05.48-.16.62a.49.49 0 0 1-.4.21h-.04a.5.5 0 0 1-.41-.21c-.1-.16-.16-.35-.16-.56v-.2a1 1 0 0 1 .16-.61.5.5 0 0 1 .43-.2.5.5 0 0 1 .42.2z"/>
    </symbol>
    <symbol id="icon-customer2" viewBox="0 0 25 32">
      <path  d="M10.53 1.8h-.81l-.78.01h.04A17.4 17.4 0 0 0 2.5 3.46l-.27.13V17.2l.63-.2c2-.73 4.3-1.15 6.7-1.18v1.79l-.65.02h-.05c-3.1.17-5.97 1.03-8.5 2.42l.1-.05V2.52A17.87 17.87 0 0 1 5.14.62l.13-.04C6.62.22 8.17.01 9.77 0h.27a13 13 0 0 1 3.25.42L13.2.4v1.77c-.63-.16-1.37-.28-2.13-.33h-.09c-.15-.02-.3-.04-.45-.04zm3.1 1.8a18.92 18.92 0 0 0 6.09-.59l-.14.03a19.55 19.55 0 0 0 4.67-1.83l-.1.05v17.16a17.95 17.95 0 0 1-4.67 1.93l-.13.03a18.5 18.5 0 0 1-4.5.57h-.11c-1.18 0-2.33-.14-3.42-.42l.1.02V3.27c.63.16 1.39.28 2.16.33h.05zm8.74.14-.62.21a20.67 20.67 0 0 1-8.1 1.14h.05l-.5-.02v14l.43.04a16.14 16.14 0 0 0 5.4-.5l-.1.03c1.21-.31 2.27-.7 3.27-1.2l-.1.05.27-.12V3.74zM1.69 25.98a.92.92 0 0 0-.66-.28H.99c-.13 0-.27.02-.4.07a.93.93 0 0 0-.58.9v2.35c0 .16.02.32.09.47a1 1 0 0 0 .23.31c.1.08.2.14.32.17s.24.05.35.05a.98.98 0 0 0 .97-.99v-.25h-.62v.2a.4.4 0 0 1-.03.2.38.38 0 0 1-.08.14.42.42 0 0 1-.26.09H.94a.3.3 0 0 1-.24-.12.55.55 0 0 1-.1-.3v-2.2c0-.12.03-.24.09-.34a.3.3 0 0 1 .3-.14c.11 0 .2.05.27.13.06.08.1.19.1.3v.21h.6v-.24c0-.29-.1-.54-.27-.74zm3.62-.03a1.08 1.08 0 0 0-1.06-.19.97.97 0 0 0-.32.19 1.02 1.02 0 0 0-.32.78v2.24c0 .16.02.31.08.46a.8.8 0 0 0 .24.3c.1.1.2.17.32.21a1.06 1.06 0 0 0 .74 0h-.01a.96.96 0 0 0 .65-.9v-2.35a1 1 0 0 0-.32-.74zm-.28 3.02a.39.39 0 0 1-.13.32.45.45 0 0 1-.57 0 .4.4 0 0 1-.12-.29v-2.27a.39.39 0 0 1 .12-.32.45.45 0 0 1 .58 0 .4.4 0 0 1 .12.29v2.27zm5.04 1v-4.25h-.59l-.77 2.25-.78-2.25h-.58v4.24h.6v-2.58h.01l.6 1.83h.3l.6-1.83v2.58h.61zm3.44-3.94a.78.78 0 0 0-.34-.23 1.31 1.31 0 0 0-.42-.07h-.92v4.24h.6V28.3h.31c.2 0 .38-.03.55-.11.25-.16.42-.4.47-.7a2.92 2.92 0 0 0-.03-1.1v.02a.9.9 0 0 0-.22-.4zm-.3 1.3a.52.52 0 0 1-.07.21.32.32 0 0 1-.15.15.6.6 0 0 1-.27.06h-.29V26.3h.33c.1 0 .18.02.26.06.06.03.1.08.14.15a.6.6 0 0 1 .05.23v.58zm3.16-1.6h-.5l-.92 4.24h.6l.18-.91h.82l.19.9h.6l-.96-4.23zm-.56 2.75.3-1.54h.01l.3 1.54h-.6zm4.47-.2h-.02l-.9-2.55h-.58v4.24h.6v-2.55h.01l.92 2.55h.56v-4.25h-.6v2.56zm3.69-2.55-.5 1.68-.5-1.68h-.62l.83 2.45v1.78h.6v-1.78l.83-2.45h-.64zM0 31.16h.29v.82h.2v-.82h.3V31h-.8v.16zM2.45 31l-.38.98h.2l.09-.22h.39l.08.22h.21L2.67 31h-.21zm-.03.6.13-.38.13.37h-.26zm2.44.02h.24v.12a.38.38 0 0 1-.24.09h-.02a.25.25 0 0 1-.19-.1.4.4 0 0 1-.07-.23v-.02c0-.22.1-.33.28-.33h.02c.1 0 .18.07.2.15l.2-.03c-.04-.2-.18-.3-.42-.3h-.02a.5.5 0 0 0-.32.13.48.48 0 0 0-.14.39c0 .13.03.26.12.36.09.1.21.15.35.15h.03a.6.6 0 0 0 .41-.16v-.39h-.43v.17zM7.33 31h-.2v.98h.7v-.16h-.5V31zm2.1 0h-.2v.98h.2V31zm2.04.66-.4-.66h-.2v.98h.19v-.64l.4.64h.19V31h-.19v.65zm1.85-.1h.49v-.18h-.5v-.22h.53V31h-.73v.98h.76v-.16h-.56v-.27zm4.47-.17h-.39v-.4h-.2v1h.2v-.44h.4v.43h.19V31h-.2v.38zm1.86.16h.5v-.17h-.5v-.22h.53V31h-.73v.98h.75v-.16h-.55v-.27zm2.52 0c.17-.03.25-.12.25-.28a.23.23 0 0 0-.09-.21.55.55 0 0 0-.25-.06h-.46v.98h.2v-.41h.04c.04 0 .08 0 .12.03.03.01.06.04.08.07l.21.3h.23l-.12-.18a.64.64 0 0 0-.21-.24zm-.2-.14h-.15v-.24h.21c.05 0 .1 0 .15.02.03.02.05.06.05.1 0 .04-.02.08-.06.1a.56.56 0 0 1-.17.03h-.03zm2.1.14h.49v-.17h-.5v-.22h.54V31h-.73v.98h.75v-.16h-.55v-.27z"/>
    </symbol>
    <symbol id="icon-customer3" viewBox="0 0 34 32">
      <path  d="m5.64 31.31.04.01.03.02.16.16a1.4 1.4 0 0 1-1.12.4 1.9 1.9 0 0 1-.63-.09 1.28 1.28 0 0 1-.76-.71v-.01a1.45 1.45 0 0 1 0-1.15v.01c.16-.34.45-.6.8-.72h.01a1.92 1.92 0 0 1 1.26-.01h-.01c.16.05.3.14.44.25l-.14.17a.15.15 0 0 1-.04.03.1.1 0 0 1-.05.01.14.14 0 0 1-.06-.02l-.08-.04-.1-.06a1.16 1.16 0 0 0-.52-.12H4.8c-.15 0-.3.02-.45.08a1.02 1.02 0 0 0-.69 1c0 .15.03.3.09.45.1.26.31.46.57.55.14.05.29.08.43.08l.25-.02a1 1 0 0 0 .55-.23.13.13 0 0 1 .08-.03zm4.8-.8c0 .2-.03.38-.1.57-.17.34-.45.6-.8.72h-.02a2 2 0 0 1-1.26 0 1.45 1.45 0 0 1-.49-.29 1.28 1.28 0 0 1-.3-.43l-.01-.01a1.37 1.37 0 0 1 .31-1.56 1.64 1.64 0 0 1 1.12-.39 2 2 0 0 1 .65.11h-.02a1.3 1.3 0 0 1 .91 1.24v.05zm-.44 0c0-.15-.02-.3-.07-.45a.93.93 0 0 0-.57-.54 1.44 1.44 0 0 0-.93 0h.01a1 1 0 0 0-.36.2.9.9 0 0 0-.22.34c-.1.3-.1.61 0 .91.1.26.3.46.57.55.3.09.63.09.92 0 .14-.05.26-.12.36-.21.1-.1.17-.22.22-.34.05-.15.07-.3.07-.46zm3.71.48.05.1.05-.1.05-.1 1.07-1.68c.01-.02.03-.04.05-.04a.27.27 0 0 1 .09-.02h.31v2.73h-.37V29.7l-1.07 1.7a.15.15 0 0 1-.06.06.2.2 0 0 1-.09.02h-.06c-.04 0-.07 0-.1-.02a.15.15 0 0 1-.05-.06l-1.1-1.71v2.19h-.37v-2.73h.32c.03 0 .06 0 .09.02.02 0 .04.02.06.04l1.08 1.68.05.1zm4-.13v1.02h-.41v-2.73h.92c.17 0 .35.02.52.06.13.03.26.1.36.17.1.07.17.17.21.27a.8.8 0 0 1 .07.35c0 .25-.11.47-.3.61a.93.93 0 0 1-.37.19 1.7 1.7 0 0 1-.48.06h-.52zm0-.3h.5c.11 0 .22 0 .33-.04a.7.7 0 0 0 .23-.12c.11-.1.19-.24.19-.4v-.04a.46.46 0 0 0-.04-.19.54.54 0 0 0-.15-.19.9.9 0 0 0-.56-.14h-.5v1.12zm5.58 1.32h-.33c-.04 0-.07-.01-.09-.03a.18.18 0 0 1-.05-.06l-.28-.66h-1.42l-.3.66a.15.15 0 0 1-.14.1h-.33l1.25-2.74h.43l1.26 2.73zm-2.06-1.02h1.18l-.5-1.1a1.57 1.57 0 0 1-.09-.25l-.04.14-.05.11-.5 1.1zm3.86-1.7.06.05 1.82 2.06v-2.12h.37v2.73h-.2c-.04 0-.07 0-.1-.02a.23.23 0 0 1-.06-.05l-1.81-2.06v2.13h-.38v-2.73h.23c.02 0 .05 0 .07.02zm5.31 1.64v1.08h-.41V30.8l-1.15-1.65h.38c.03 0 .06 0 .08.02l.06.06.71 1.07.13.23.05-.1.08-.13.7-1.07a.31.31 0 0 1 .05-.06.13.13 0 0 1 .09-.03h.39L30.4 30.8zm-16.9-6.22.56.05a15.3 15.3 0 0 0 6.79-5.1l.03-.03a12.19 12.19 0 0 0 2.42-7.56v.01l-3.1-2.68a13.6 13.6 0 0 1-.84 8.48 16.09 16.09 0 0 1-5.79 6.8l-.06.03z"/>
      <path  d="M12.4 24.46h.09a15.45 15.45 0 0 0 6.17-7.03 13 13 0 0 0 .55-8.92l.03.1-4.4-3.82a16.22 16.22 0 0 1 2.05 10.2v-.07a17.2 17.2 0 0 1-4.5 9.54l.01-.01zm14.93-9.35a13.8 13.8 0 0 1-5.14 7.5l-.04.03c-.76.58-1.59 1.1-2.45 1.54 2.19-.56 4.1-1.53 5.74-2.83l-.03.02a12.76 12.76 0 0 0 3.67-4.64l.03-.08-1.78-1.54z"/>
      <path  d="m26.63 14.67-2.55-2.2a12.72 12.72 0 0 1-2.4 7.15l.02-.03a15.63 15.63 0 0 1-6.12 5.04l-.1.04h.02c.57 0 1.14-.03 1.7-.08 2.42-.86 4.48-2.2 6.15-3.92a12.89 12.89 0 0 0 3.26-5.9l.02-.1zM12.78 3.17 9.74.53a14.5 14.5 0 0 0-6.67 4.56l-.02.03A11.36 11.36 0 0 0 .52 12.2a11.5 11.5 0 0 0 3.07 7.7v-.01a14.77 14.77 0 0 0 7.76 4.4l.1.03a16.57 16.57 0 0 0 4.64-10.33v-.05a16.1 16.1 0 0 0-3.34-10.8l.03.04zm20.85 11.1a11.7 11.7 0 0 0-4.22-8.82 15.5 15.5 0 0 0-10.04-3.67h-.12.01c-1.76 0-3.5.28-5.15.84l18.56 16.11c.6-1.3.96-2.84.96-4.46z"/>
    </symbol>
    <symbol id="icon-customer4" viewBox="0 0 65 32">
      <path  d="M10.02 9.98c-1.83 0-3.31 1.32-3.31 2.94 0 1.63 1.48 2.94 3.3 2.94 1.83 0 3.32-1.3 3.32-2.94 0-1.62-1.49-2.94-3.31-2.94zm24.42-.94a8.09 8.09 0 0 0-2.81-6l-.01-.01a10.18 10.18 0 0 0-6.7-2.5h-.06c-2.53 0-4.97.9-6.76 2.5a8.06 8.06 0 0 0-2.82 6v12.45s19.16-1.9 19.16-12.44zM0 25.56c0 1.57.7 3.07 1.96 4.19a7.09 7.09 0 0 0 4.66 1.73h.04a7.1 7.1 0 0 0 4.7-1.74 5.61 5.61 0 0 0 1.97-4.17V16.9S0 18.23 0 25.56zm6.66 1.55c-.34 0-.69-.08-.97-.26a1.6 1.6 0 0 1-.64-.68v-.01a1.37 1.37 0 0 1-.1-.91c.07-.3.23-.56.48-.78.25-.22.55-.37.88-.43h.01c.34-.05.69-.02 1 .09s.6.31.8.57a1.42 1.42 0 0 1-.22 1.96 1.8 1.8 0 0 1-1.2.46h-.04zm13.47-.86h-1.29v1.34h-.67v-3.26h2.12v.55h-1.45v.83h1.29v.54zm3.21-.22a2 2 0 0 1-.16.84c-.2.45-.65.76-1.17.76h-.09c-.52 0-.96-.3-1.17-.73v-.01c-.1-.23-.17-.5-.17-.79v-.2c0-.32.05-.6.17-.84.2-.45.66-.76 1.18-.76h.04a1.33 1.33 0 0 1 1.21.76 2 2 0 0 1 .17.84v.15zm-.67-.15c0-.33-.06-.6-.19-.77a.6.6 0 0 0-.5-.26h-.01c-.23 0-.4.08-.53.25s-.18.44-.18.77v.16c0 .34.06.6.18.77s.3.28.53.28c.22 0 .4-.09.51-.26s.19-.43.19-.77v-.16zm2.85.86a.38.38 0 0 0-.13-.3c-.14-.09-.3-.16-.48-.2h-.01a3.25 3.25 0 0 1-.55-.24c-.37-.2-.56-.46-.56-.8 0-.18.06-.33.16-.47s.23-.24.42-.33a1.57 1.57 0 0 1 1.25.02c.34.14.57.47.57.86v.01h-.67a.42.42 0 0 0-.14-.34.57.57 0 0 0-.36-.13h-.07a.6.6 0 0 0-.35.1.33.33 0 0 0-.14.27v.01c0 .11.06.2.16.27.11.07.27.14.48.2.38.11.65.26.83.42.17.17.26.39.26.64 0 .28-.1.5-.32.66s-.5.24-.86.24H25c-.24 0-.47-.05-.67-.14a.97.97 0 0 1-.63-.9v-.02h.67c0 .35.23.53.65.53.16 0 .29-.03.38-.1a.35.35 0 0 0 .13-.27zm3.58-1.86h-1v2.7h-.67v-2.7h-1v-.54h2.66v.54zm2.33 1.3h-1.28v.87h1.5v.53h-2.17v-3.25h2.17v.55h-1.5v.77h1.28v.53zm1.83.22h-.54v1.19h-.67v-3.25h1.2c.39 0 .68.08.9.25.2.17.3.42.3.73 0 .23-.04.4-.14.55a.88.88 0 0 1-.44.35l.7 1.34v.03h-.71l-.61-1.2zm-.54-.55h.54c.16 0 .3-.04.39-.12.08-.08.13-.2.13-.33v-.03c0-.15-.03-.27-.13-.36-.08-.09-.22-.13-.4-.13h-.53v.97zm4.06.59v1.14h-.67v-3.24h1.26c.25 0 .46.04.65.13.18.09.33.22.43.38.1.16.15.35.15.56 0 .32-.11.57-.34.76-.2.18-.51.27-.9.27h-.58zm0-.54h.6c.17 0 .3-.04.4-.12.1-.09.14-.21.14-.36v-.02a.53.53 0 0 0-.14-.36.52.52 0 0 0-.37-.16h-.63v1.02zm4.23.28h-1.28v.87h1.5v.53h-2.17v-3.24h2.17v.54h-1.5v.77H41v.53zm3.11-1.3h-1v2.7h-.67v-2.7h-.98v-.54h2.65v.54zm2.34 1.3h-1.3v.87h1.52v.53H44.5v-3.24h2.18v.54h-1.49v.77h1.29v.53zm1.81.22h-.53v1.19h-.67v-3.25h1.21c.38 0 .69.08.9.25.2.17.3.42.3.73 0 .23-.05.4-.14.55a.94.94 0 0 1-.44.35l.7 1.34v.03h-.72l-.6-1.2zm-.53-.55h.54c.17 0 .3-.04.4-.12.08-.08.14-.2.14-.33v-.03a.47.47 0 0 0-.14-.36c-.08-.09-.22-.13-.4-.13h-.53v.97zm3.94.88a.34.34 0 0 0-.14-.29c-.13-.09-.3-.16-.46-.2h-.02a2.99 2.99 0 0 1-.55-.24c-.37-.2-.55-.46-.55-.8 0-.18.04-.33.15-.47.1-.14.24-.24.42-.33a1.64 1.64 0 0 1 1.26.02h-.01c.18.07.32.2.42.36.1.15.15.32.15.51h-.67a.43.43 0 0 0-.14-.34.57.57 0 0 0-.36-.13h-.07a.6.6 0 0 0-.35.11.33.33 0 0 0-.13.27c0 .11.05.2.15.27.12.07.27.14.48.2.38.11.66.26.83.43s.26.38.26.63c0 .28-.1.5-.32.66s-.5.25-.86.25h-.02c-.24 0-.47-.05-.68-.15h.01a.97.97 0 0 1-.63-.9v-.02h.68c0 .36.21.53.64.53h.04c.12 0 .24-.03.34-.1v.01a.35.35 0 0 0 .13-.27z"/>
    </symbol>
    <symbol id="icon-customer5" viewBox="0 0 43 32">
      <path  d="M3.24 26.38a1 1 0 0 1 .25.66.92.92 0 0 1-.1.46c-.06.14-.15.27-.28.38a1.8 1.8 0 0 1-1.13.3H0v-4.21h1.94a1.75 1.75 0 0 1 1.08.29H3c.23.17.38.44.38.75v.03a.9.9 0 0 1-.23.64 1.1 1.1 0 0 1-.59.34c.26.04.5.17.67.36zm-2.31-.64h.81c.2.01.38-.04.53-.14a.4.4 0 0 0 .14-.19.43.43 0 0 0 .04-.23v-.04a.47.47 0 0 0-.03-.18.53.53 0 0 0-.14-.18.85.85 0 0 0-.55-.15h-.8v1.1zm1.43 1.62c.12-.1.2-.25.2-.42v-.04a.55.55 0 0 0-.2-.4h-.01a.9.9 0 0 0-.5-.16H.92v1.16h.88c.2.01.4-.04.55-.15zm4.84.83-1.07-1.65h-.41v1.65h-.93v-4.22h1.88c.41 0 .8.13 1.1.36a1.26 1.26 0 0 1 .13 1.74c-.22.23-.52.38-.84.43l1.14 1.69h-1zm-1.48-2.23h.76c.53 0 .8-.2.8-.63v-.03a.65.65 0 0 0-.2-.45.87.87 0 0 0-.6-.17h-.77v1.28zm6.54 1.38h-1.84l-.33.85h-.97l1.7-4.18h1.05l1.68 4.18h-.97l-.33-.85zm-.24-.64-.68-1.78-.68 1.78h1.36zm6.58 1.49h-.92l-2.06-2.87v2.86h-.91v-4.2h.92l2.06 2.87v-2.88h.92v4.22zm5.25-1.02a2 2 0 0 1-.83.75c-.36.17-.79.27-1.23.27h-1.7v-4.22h1.7c.44 0 .87.1 1.25.27h-.02c.35.15.64.4.83.73a2.25 2.25 0 0 1 0 2.21zm-1.05-.1c.26-.27.41-.63.41-1s-.15-.73-.4-1a1.68 1.68 0 0 0-1.17-.36h-.63v2.72h.64c.42.03.83-.1 1.15-.35zM12.84.53s11.87 4.1 11.62 10.05V20.6S12.6 16.5 12.84 10.56V.52zm22.2 17.74a17 17 0 0 1 7.47-2.54h.07v-3.15a15.34 15.34 0 0 0-7.51 5.64l-.03.05z"/>
      <path  d="M33.69 19.2a15.81 15.81 0 0 1 8.78-7.25l.11-.04V2.84S25.67 8.7 26.03 17.16v14.3s.75-.26 1.94-.75c0-.47 0-.92.05-1.39a14.5 14.5 0 0 1 5.63-10.09l.04-.02z"/>
      <path  d="M32.08 24.52c.1-.99.29-1.98.6-2.93a13.17 13.17 0 0 0-3.59 8.62v.03a56 56 0 0 0 3.26-1.58 13.4 13.4 0 0 1-.27-4.14zm.67.05a12.78 12.78 0 0 0 .23 3.83l-.02-.08c4.62-2.53 9.81-6.44 9.61-11.17v-.4a15.7 15.7 0 0 0-8.8 3.77l.01-.02a12.8 12.8 0 0 0-1.02 4.02v.05z"/>
    </symbol>
    <symbol id="icon-customer6" viewBox="0 0 67 32">
      <path  d="M33.72 15.22a2.08 2.08 0 0 1-.42-1.42v-2.04c0-.63.14-1.1.42-1.44s.78-.49 1.47-.48c.65 0 1.12.14 1.4.41.29.36.43.8.4 1.23v.48h-1.16v-.49c0-.16-.01-.32-.04-.47a.46.46 0 0 0-.16-.29.67.67 0 0 0-.43-.11h-.04a.7.7 0 0 0-.4.12.54.54 0 0 0-.2.31 3 3 0 0 0-.04.5v2.5c-.02.24.03.47.15.7a.58.58 0 0 0 .53.2h.06c.13 0 .25-.04.36-.1a.5.5 0 0 0 .17-.3v-.01c.02-.17.04-.34.04-.5v-.51h1.16v.46c.03.45-.11.91-.4 1.29-.27.3-.73.45-1.4.45-.67 0-1.18-.16-1.47-.5zm4.87.03c-.3-.32-.45-.79-.45-1.4v-2.16c0-.61.15-1.07.44-1.39.3-.31.79-.47 1.48-.46.69 0 1.18.15 1.47.46.3.32.45.78.45 1.39v2.16c0 .6-.15 1.07-.45 1.39-.3.33-.78.48-1.47.48s-1.18-.16-1.48-.47zm2.01-.52c.11-.2.16-.42.15-.64v-2.64a1.2 1.2 0 0 0-.15-.63.56.56 0 0 0-.23-.17.63.63 0 0 0-.31-.03h-.08a.65.65 0 0 0-.24.04h.01a.51.51 0 0 0-.24.16 1.26 1.26 0 0 0-.14.63v2.65c-.01.21.03.44.14.64a.82.82 0 0 0 .85.16c.1-.04.17-.1.24-.16v-.01zm2.78-4.83h1.26l.94 3.98.97-3.98h1.22l.12 5.75H47l-.1-4-.92 4h-.74l-.97-4-.09 4h-.91l.11-5.75zm5.92 0h1.96c1.13 0 1.69.55 1.69 1.63 0 1.04-.6 1.57-1.78 1.57h-.67v2.54h-1.2V9.9zm1.67 2.46c.12 0 .24 0 .36-.03a1 1 0 0 0 .31-.16c.14-.19.2-.42.17-.64 0-.18-.01-.36-.05-.53a.42.42 0 0 0-.1-.16.5.5 0 0 0-.14-.1 1.26 1.26 0 0 0-.55-.1h-.47v1.72h.47zm3.71-2.46h1.3l1.34 5.74H56.2l-.26-1.32h-1.16l-.27 1.32h-1.14L54.7 9.9zm1.12 3.75-.45-2.4-.45 2.41h.9zm2.6-3.75h.84l1.62 3.28V9.9h1v5.73h-.8l-1.63-3.4v3.4H58.4V9.9zm5.81 3.55-1.35-3.54H64l.82 2.27.77-2.27h1.1l-1.32 3.55v2.18h-1.16v-2.19zm-28.62 4.7v.3h-.99v2.34h-.4v-2.34h-1v-.3h2.4zm3.1 2.64h-.33a.14.14 0 0 1-.09-.03.15.15 0 0 1-.06-.05l-.28-.63h-1.36l-.29.63-.04.07a.14.14 0 0 1-.08.02h-.33l1.2-2.63h.43l1.22 2.62zm-2.01-.98h1.14l-.49-1.06a1.77 1.77 0 0 1-.08-.25v-.01l-.05.14-.05.12-.47 1.06zm4.08.72H41c.13 0 .26-.03.38-.07h-.01l.15-.07v-.6h-.48a.1.1 0 0 1-.06-.01l-.02-.03v-.22h.93v1c-.23.15-.5.25-.8.27a1.88 1.88 0 0 1-.99-.08h.02a1.3 1.3 0 0 1-.78-.68h-.01a1.33 1.33 0 0 1-.12-.55v-.05c0-.37.17-.7.43-.92.13-.12.3-.21.48-.28a2 2 0 0 1 1-.07h-.02c.2.03.38.09.54.17l.2.14-.12.16a.1.1 0 0 1-.04.04.11.11 0 0 1-.05 0l-.07-.01a1.5 1.5 0 0 0-.78-.21h-.05c-.16 0-.32.02-.46.07h.01a1 1 0 0 0-.58.52c-.11.3-.11.6 0 .89a1.03 1.03 0 0 0 1.07.59zm3.86-.04h1.31v.3h-1.72v-2.63h.41v2.33zm2.68.3h-.4v-2.63h.4v2.63zm1.54-2.62a.1.1 0 0 1 .06.05l1.77 1.98v-2.05h.35v2.64h-.2l-.09-.01a.23.23 0 0 1-.06-.05l-1.77-2v2.06h-.34v-2.63h.28zm5.23-.02v.29h-1.46v.87h1.19v.29h-1.2v.9h1.47v.28h-1.89v-2.63h1.9zM10.78 1.9l18.35 4.5v15.75l-18.35-4.49V1.89zM9.61.54v17.88l20.69 5.07V5.62L9.6.55z"/>
      <path  d="M20.7 31.79 0 26.69V8.84l20.7 5.08v17.86z"/>
      <path  d="m9.95 1.69 18.1 4.44-7.7 6.64-18.1-4.44 7.7-6.65zM9.6.55 0 8.84l20.7 5.08 9.6-8.3L9.6.55zm12.25 30.23 8.44-7.3-8.44-2.06v9.36z"/>
    </symbol>
    <symbol id="icon-diagram" viewBox="0 0 32 32">
      <path  fill="var(--logo-secondary-color)" d="M14.93 14.97h1.06v4.8h-1.06v-4.8zm4.26 2.13h1.07v2.66h-1.07V17.1zm-8.53 1.6h1.07v1.06h-1.07V18.7zm-3.2-.54h1.07v1.6H7.46v-1.6z"/>
      <path  d="M1.6 28.3h25.59c.88 0 1.6-.72 1.6-1.6v-2.14c0-.89-.72-1.6-1.6-1.6h-.54V9.67l3.03-2.87a1.6 1.6 0 1 0-.75-.75v-.01L26.65 8.2V6.97c0-.88-.71-1.6-1.6-1.6H3.73c-.88 0-1.6.72-1.6 1.6v16H1.6c-.88 0-1.6.71-1.6 1.6v2.12c0 .89.72 1.6 1.6 1.6zM30.39 4.83h.04a.53.53 0 1 1-.05 1.06.54.54 0 0 1 0-1.06zM3.2 6.97c0-.3.24-.53.53-.53h21.32c.3 0 .54.23.54.53V9.2l-1.07 1.01V8.04c0-.3-.24-.54-.53-.54H4.8c-.3 0-.53.24-.53.54v13.32c0 .3.24.53.53.53H24c.29 0 .53-.23.53-.53V11.7l1.06-1.01v12.28H3.2v-16zM8 13.9h-.01a1.6 1.6 0 1 0 1.11 2.74l1.86.94c.21.1.47.05.63-.13l3.94-4.43 3.87 2.9c.21.16.5.14.69-.03l3.37-3.2v8.14H5.33V8.56h18.13v2.66l-3.78 3.57-3.9-2.92a.54.54 0 0 0-.72.07l-4 4.5-1.49-.75.03-.2c0-.88-.72-1.6-1.6-1.6zm.53 1.6a.53.53 0 1 1-1.07 0 .53.53 0 1 1 1.07 0zm3.2 8.53h5.32v.53c0 .3-.24.53-.53.53h-4.26a.54.54 0 0 1-.54-.53v-.53zm-10.67.53c0-.3.24-.53.54-.53h9.06v.53c0 .88.71 1.6 1.6 1.6h4.26c.89 0 1.6-.72 1.6-1.6v-.53h9.06c.3 0 .53.24.53.53v2.13c0 .3-.23.53-.53.53H1.6a.53.53 0 0 1-.53-.53v-2.13z"/>
    </symbol>
    <symbol id="icon-envelope" viewBox="0 0 43 32">
      <path  d="M38.67 0H4a4 4 0 0 0-4 4v24a4 4 0 0 0 4 4h34.67a4 4 0 0 0 4-4V4a4 4 0 0 0-4-4zm0 2.67c.2 0 .38.04.54.1h-.01L21.33 18.24 3.47 2.77c.15-.06.33-.1.52-.1h34.68zm0 26.66H4c-.74 0-1.33-.6-1.33-1.33V5.6l17.78 15.41a1.33 1.33 0 0 0 1.77 0L40 5.6V28c0 .74-.6 1.33-1.33 1.33z"/>
    </symbol>
    <symbol id="icon-facebook" viewBox="0 0 32 32">
      <path  d="M21.33 5.31h2.93V.22C23.74.16 22.02 0 20 0c-4.22 0-7.1 2.66-7.1 7.52V12H8.26v5.68h4.64V32h5.7V17.7h4.46l.7-5.7h-5.17V8.08c0-1.65.45-2.77 2.74-2.77z"/>
    </symbol>
    <symbol id="icon-instagram" viewBox="0 0 32 32">
      <path d="M31.97 9.4c-.03-1.4-.3-2.73-.76-3.96l.02.08a7.86 7.86 0 0 0-1.85-2.83A7.95 7.95 0 0 0 26.54.85 11.48 11.48 0 0 0 22.67.1h-.01a104.86 104.86 0 0 0-6.69-.1h.1c-4.36 0-4.9.02-6.6.1C7.76.16 6.6.45 5.58.83A8.04 8.04 0 0 0 2.75 2.7 8 8 0 0 0 .92 5.47l-.02.05A11.47 11.47 0 0 0 .16 9.4a104.86 104.86 0 0 0-.1 6.69V16c0 4.35 0 4.9.08 6.6.03 1.4.3 2.73.78 3.96l-.02-.08a7.78 7.78 0 0 0 1.85 2.83 8 8 0 0 0 2.78 1.84l.05.02c1.01.38 2.18.65 3.88.73 1.7.08 2.24.1 6.59.1s4.9-.02 6.6-.1c1.4-.02 2.73-.29 3.96-.76l-.08.03a8.24 8.24 0 0 0 4.67-4.64l.02-.05c.38-1.02.67-2.18.73-3.89.08-1.7.1-2.24.1-6.59 0-4.34 0-4.88-.08-6.6zm-2.88 13.08a8.54 8.54 0 0 1-.55 2.96 5.34 5.34 0 0 1-3 3.03l-.04.01c-.56.22-1.42.48-2.97.54-1.68.08-2.2.1-6.47.1a106.97 106.97 0 0 1-6.7-.1h.24a8.45 8.45 0 0 1-2.96-.54 4.96 4.96 0 0 1-1.84-1.2c-.52-.5-.93-1.1-1.19-1.79l-.01-.03a8.64 8.64 0 0 1-.54-2.98 108.65 108.65 0 0 1-.1-6.55v.09c0-4.28.02-4.79.1-6.47a8.6 8.6 0 0 1 .54-2.97c.26-.7.66-1.32 1.2-1.83.5-.52 1.12-.93 1.8-1.19h.04c.56-.23 1.4-.49 2.98-.55 1.68-.08 2.19-.1 6.44-.1 4.3 0 4.8 0 6.47.1a8.6 8.6 0 0 1 2.97.54c.7.26 1.33.66 1.84 1.2.53.51.95 1.14 1.2 1.83.21.57.48 1.42.55 2.97.08 1.68.1 2.2.1 6.47s-.02 4.76-.1 6.46z"/>
      <path d="M16.06 7.78a8.22 8.22 0 1 0 0 16.44 8.22 8.22 0 1 0 0-16.44zm0 13.55a5.33 5.33 0 1 1 0-10.66 5.33 5.33 0 1 1 0 10.66zM26.53 7.46a1.92 1.92 0 0 1-3.84 0 1.92 1.92 0 0 1 3.84 0z"/>
    </symbol>
    <symbol id="icon-linkedin" viewBox="0 0 32 32">
      <path  d="M32 32V20.26c0-5.73-1.23-10.16-7.95-10.16h-.26a6.96 6.96 0 0 0-6 3.42l-.01.03h-.1v-2.91H11.3V32h6.64V21.42c0-2.78.53-5.49 3.97-5.49 3.4 0 3.45 3.19 3.45 5.67V32H32zM.53 10.64h6.64V32H.53V10.64zM3.84 0A3.84 3.84 0 0 0 0 3.84v.02a3.87 3.87 0 0 0 3.84 3.87 3.87 3.87 0 0 0 0-7.73z"/>
    </symbol>
    <symbol id="icon-smartphone" viewBox="0 0 20 32">
      <path  d="M17 0H3a3 3 0 0 0-3 3v26a3 3 0 0 0 3 3h14a3 3 0 0 0 3-3V3a3 3 0 0 0-3-3zM3 2h14c.56 0 1 .44 1 1v21H2V3c0-.56.44-1 1-1zm14 28H3a1 1 0 0 1-1-1v-3h16v3a1 1 0 0 1-1 1z"/>
      <path  d="M4.7 27.48c.4.36.4.96 0 1.32a1.05 1.05 0 0 1-1.4 0 .9.9 0 0 1 0-1.32c.4-.36 1-.36 1.4 0z"/>
    </symbol>
    <symbol id="icon-twitter" viewBox="0 0 32 32">
      <path  d="M32 6.08c-1.1.5-2.37.86-3.7 1.03l-.08.01a6.46 6.46 0 0 0 2.88-3.63 13.95 13.95 0 0 1-4.16 1.6 6.54 6.54 0 0 0-11.37 4.45c0 .54.06 1.06.18 1.56v-.04A18.55 18.55 0 0 1 2.26 4.23l-.03-.04a6.6 6.6 0 0 0 1.98 8.75l.02.02a6.3 6.3 0 0 1-2.96-.8v.06c0 3.2 2.27 5.84 5.26 6.45a6.41 6.41 0 0 1-3.01.1l.04.01a6.64 6.64 0 0 0 6.13 4.56h.01a13.1 13.1 0 0 1-9.77 2.73H0a18.29 18.29 0 0 0 10 2.95h.07c12.08 0 18.67-10 18.67-18.67 0-.29 0-.58-.03-.85A13.1 13.1 0 0 0 32 6.1z"/>
    </symbol>
  </defs>
</svg>
